<mxfile host="app.diagrams.net" modified="2022-05-21T13:45:23.046Z" agent="5.0 (Windows NT 10.0; Win64; x64) AppleWebKit/537.36 (KHTML, like Gecko) Chrome/101.0.4951.54 Safari/537.36" etag="_QNtghQFvtHLApKzJlK0" version="18.0.4" type="github">
  <diagram id="qfE5Of0j5lX-ngmlI0XY" name="第 1 页">
    <mxGraphModel dx="1065" dy="449" grid="0" gridSize="10" guides="1" tooltips="1" connect="1" arrows="1" fold="1" page="1" pageScale="1" pageWidth="827" pageHeight="1169" math="0" shadow="0">
      <root>
        <mxCell id="0" />
        <mxCell id="1" parent="0" />
        <mxCell id="pUyvp6-w6EmGbuxLek9e-1" value="" style="rounded=1;whiteSpace=wrap;html=1;fillColor=#fff2cc;strokeColor=#d6b656;" vertex="1" parent="1">
          <mxGeometry x="90" y="110" width="140" height="130" as="geometry" />
        </mxCell>
        <mxCell id="pUyvp6-w6EmGbuxLek9e-3" value="" style="rounded=1;whiteSpace=wrap;html=1;fillColor=#f8cecc;strokeColor=#b85450;" vertex="1" parent="1">
          <mxGeometry x="290" y="290" width="150" height="130" as="geometry" />
        </mxCell>
        <mxCell id="pUyvp6-w6EmGbuxLek9e-4" value="" style="rounded=1;whiteSpace=wrap;html=1;fillColor=#dae8fc;strokeColor=#6c8ebf;" vertex="1" parent="1">
          <mxGeometry x="494" y="110" width="146" height="130" as="geometry" />
        </mxCell>
        <mxCell id="pUyvp6-w6EmGbuxLek9e-5" value="" style="rounded=1;whiteSpace=wrap;html=1;fillColor=#d5e8d4;strokeColor=#82b366;" vertex="1" parent="1">
          <mxGeometry x="290" y="484" width="150" height="54" as="geometry" />
        </mxCell>
        <mxCell id="pUyvp6-w6EmGbuxLek9e-6" value="推广子系统" style="text;html=1;align=center;verticalAlign=middle;resizable=0;points=[];autosize=1;strokeColor=none;fillColor=none;" vertex="1" parent="1">
          <mxGeometry x="527" y="70" width="80" height="20" as="geometry" />
        </mxCell>
        <mxCell id="pUyvp6-w6EmGbuxLek9e-7" value="192.168.43.100" style="text;html=1;align=center;verticalAlign=middle;resizable=0;points=[];autosize=1;strokeColor=none;fillColor=none;" vertex="1" parent="1">
          <mxGeometry x="110" y="90" width="100" height="20" as="geometry" />
        </mxCell>
        <mxCell id="pUyvp6-w6EmGbuxLek9e-8" value="短链子系统" style="text;html=1;align=center;verticalAlign=middle;resizable=0;points=[];autosize=1;strokeColor=none;fillColor=none;" vertex="1" parent="1">
          <mxGeometry x="120" y="70" width="80" height="20" as="geometry" />
        </mxCell>
        <mxCell id="pUyvp6-w6EmGbuxLek9e-9" value="192.168.43.101" style="text;html=1;align=center;verticalAlign=middle;resizable=0;points=[];autosize=1;strokeColor=none;fillColor=none;" vertex="1" parent="1">
          <mxGeometry x="517" y="90" width="100" height="20" as="geometry" />
        </mxCell>
        <mxCell id="pUyvp6-w6EmGbuxLek9e-10" value="邮件服务子系统" style="text;html=1;align=center;verticalAlign=middle;resizable=0;points=[];autosize=1;strokeColor=none;fillColor=none;" vertex="1" parent="1">
          <mxGeometry x="309" y="250" width="100" height="20" as="geometry" />
        </mxCell>
        <mxCell id="pUyvp6-w6EmGbuxLek9e-12" value="192.168.43.102" style="text;html=1;align=center;verticalAlign=middle;resizable=0;points=[];autosize=1;strokeColor=none;fillColor=none;" vertex="1" parent="1">
          <mxGeometry x="309" y="270" width="100" height="20" as="geometry" />
        </mxCell>
        <mxCell id="pUyvp6-w6EmGbuxLek9e-13" value="192.168.43.103" style="text;html=1;align=center;verticalAlign=middle;resizable=0;points=[];autosize=1;strokeColor=none;fillColor=none;" vertex="1" parent="1">
          <mxGeometry x="443" y="512" width="100" height="20" as="geometry" />
        </mxCell>
        <mxCell id="pUyvp6-w6EmGbuxLek9e-14" value="普通用户前端：8000" style="text;html=1;align=center;verticalAlign=middle;resizable=0;points=[];autosize=1;strokeColor=none;fillColor=none;" vertex="1" parent="1">
          <mxGeometry x="95" y="120" width="130" height="20" as="geometry" />
        </mxCell>
        <mxCell id="pUyvp6-w6EmGbuxLek9e-15" value="管理员前端系统：9000" style="text;html=1;align=center;verticalAlign=middle;resizable=0;points=[];autosize=1;strokeColor=none;fillColor=none;" vertex="1" parent="1">
          <mxGeometry x="95" y="146" width="140" height="20" as="geometry" />
        </mxCell>
        <mxCell id="pUyvp6-w6EmGbuxLek9e-16" value="后端系统：8080" style="text;html=1;align=center;verticalAlign=middle;resizable=0;points=[];autosize=1;strokeColor=none;fillColor=none;" vertex="1" parent="1">
          <mxGeometry x="97" y="169" width="100" height="20" as="geometry" />
        </mxCell>
        <mxCell id="pUyvp6-w6EmGbuxLek9e-17" value="普通用户前端：8000" style="text;html=1;align=center;verticalAlign=middle;resizable=0;points=[];autosize=1;strokeColor=none;fillColor=none;" vertex="1" parent="1">
          <mxGeometry x="500" y="115" width="130" height="20" as="geometry" />
        </mxCell>
        <mxCell id="pUyvp6-w6EmGbuxLek9e-18" value="管理员前端系统：9000" style="text;html=1;align=center;verticalAlign=middle;resizable=0;points=[];autosize=1;strokeColor=none;fillColor=none;" vertex="1" parent="1">
          <mxGeometry x="500" y="138" width="140" height="20" as="geometry" />
        </mxCell>
        <mxCell id="pUyvp6-w6EmGbuxLek9e-19" value="后端系统：8080" style="text;html=1;align=center;verticalAlign=middle;resizable=0;points=[];autosize=1;strokeColor=none;fillColor=none;" vertex="1" parent="1">
          <mxGeometry x="503" y="159" width="100" height="20" as="geometry" />
        </mxCell>
        <mxCell id="pUyvp6-w6EmGbuxLek9e-20" value="&lt;div style=&quot;text-align: start;&quot;&gt;&lt;span style=&quot;background-color: initial;&quot;&gt;RabbitMQ：5672&lt;/span&gt;&lt;/div&gt;" style="text;html=1;align=center;verticalAlign=middle;resizable=0;points=[];autosize=1;strokeColor=none;fillColor=none;" vertex="1" parent="1">
          <mxGeometry x="304" y="300" width="110" height="20" as="geometry" />
        </mxCell>
        <mxCell id="pUyvp6-w6EmGbuxLek9e-21" value="Redis：6379" style="text;html=1;align=center;verticalAlign=middle;resizable=0;points=[];autosize=1;strokeColor=none;fillColor=none;" vertex="1" parent="1">
          <mxGeometry x="100" y="190" width="80" height="20" as="geometry" />
        </mxCell>
        <mxCell id="pUyvp6-w6EmGbuxLek9e-22" value="Mysql：3306" style="text;html=1;align=center;verticalAlign=middle;resizable=0;points=[];autosize=1;strokeColor=none;fillColor=none;" vertex="1" parent="1">
          <mxGeometry x="95" y="210" width="90" height="20" as="geometry" />
        </mxCell>
        <mxCell id="pUyvp6-w6EmGbuxLek9e-23" value="Redis：6379" style="text;html=1;align=center;verticalAlign=middle;resizable=0;points=[];autosize=1;strokeColor=none;fillColor=none;" vertex="1" parent="1">
          <mxGeometry x="506" y="182" width="80" height="20" as="geometry" />
        </mxCell>
        <mxCell id="pUyvp6-w6EmGbuxLek9e-24" value="Mysql：3306" style="text;html=1;align=center;verticalAlign=middle;resizable=0;points=[];autosize=1;strokeColor=none;fillColor=none;" vertex="1" parent="1">
          <mxGeometry x="500" y="202" width="90" height="20" as="geometry" />
        </mxCell>
        <mxCell id="pUyvp6-w6EmGbuxLek9e-25" value="邮件消费者：8080" style="text;html=1;align=center;verticalAlign=middle;resizable=0;points=[];autosize=1;strokeColor=none;fillColor=none;" vertex="1" parent="1">
          <mxGeometry x="304" y="330" width="110" height="20" as="geometry" />
        </mxCell>
        <mxCell id="pUyvp6-w6EmGbuxLek9e-27" value="" style="shape=flexArrow;endArrow=classic;startArrow=classic;html=1;rounded=0;" edge="1" parent="1">
          <mxGeometry width="100" height="100" relative="1" as="geometry">
            <mxPoint x="230" y="170" as="sourcePoint" />
            <mxPoint x="490" y="170" as="targetPoint" />
          </mxGeometry>
        </mxCell>
        <mxCell id="pUyvp6-w6EmGbuxLek9e-28" value="" style="shape=flexArrow;endArrow=classic;startArrow=classic;html=1;rounded=0;exitX=-0.024;exitY=0.328;exitDx=0;exitDy=0;exitPerimeter=0;" edge="1" parent="1" source="pUyvp6-w6EmGbuxLek9e-3">
          <mxGeometry width="100" height="100" relative="1" as="geometry">
            <mxPoint x="110" y="340" as="sourcePoint" />
            <mxPoint x="210" y="240" as="targetPoint" />
          </mxGeometry>
        </mxCell>
        <mxCell id="pUyvp6-w6EmGbuxLek9e-29" value="" style="shape=flexArrow;endArrow=classic;startArrow=classic;html=1;rounded=0;" edge="1" parent="1">
          <mxGeometry width="100" height="100" relative="1" as="geometry">
            <mxPoint x="440" y="340" as="sourcePoint" />
            <mxPoint x="540" y="240" as="targetPoint" />
          </mxGeometry>
        </mxCell>
        <mxCell id="pUyvp6-w6EmGbuxLek9e-30" value="&lt;span style=&quot;&quot;&gt;iRedMail邮件服务器&lt;/span&gt;" style="text;html=1;align=center;verticalAlign=middle;resizable=0;points=[];autosize=1;strokeColor=none;fillColor=none;" vertex="1" parent="1">
          <mxGeometry x="440" y="489" width="120" height="20" as="geometry" />
        </mxCell>
        <mxCell id="pUyvp6-w6EmGbuxLek9e-31" value="SMTP：465" style="text;html=1;align=center;verticalAlign=middle;resizable=0;points=[];autosize=1;strokeColor=none;fillColor=none;" vertex="1" parent="1">
          <mxGeometry x="319" y="500" width="80" height="20" as="geometry" />
        </mxCell>
        <mxCell id="pUyvp6-w6EmGbuxLek9e-33" value="" style="shape=flexArrow;endArrow=classic;startArrow=classic;html=1;rounded=0;" edge="1" parent="1">
          <mxGeometry width="100" height="100" relative="1" as="geometry">
            <mxPoint x="370" y="480" as="sourcePoint" />
            <mxPoint x="370" y="420" as="targetPoint" />
          </mxGeometry>
        </mxCell>
        <mxCell id="pUyvp6-w6EmGbuxLek9e-34" value="通过API调用服务" style="text;html=1;align=center;verticalAlign=middle;resizable=0;points=[];autosize=1;strokeColor=none;fillColor=none;" vertex="1" parent="1">
          <mxGeometry x="299" y="146" width="110" height="20" as="geometry" />
        </mxCell>
        <mxCell id="pUyvp6-w6EmGbuxLek9e-35" value="通过API调用服务" style="text;html=1;align=center;verticalAlign=middle;resizable=0;points=[];autosize=1;strokeColor=none;fillColor=none;rotation=45;" vertex="1" parent="1">
          <mxGeometry x="170" y="300" width="110" height="20" as="geometry" />
        </mxCell>
        <mxCell id="pUyvp6-w6EmGbuxLek9e-36" value="通过API调用服务" style="text;html=1;align=center;verticalAlign=middle;resizable=0;points=[];autosize=1;strokeColor=none;fillColor=none;rotation=-45;" vertex="1" parent="1">
          <mxGeometry x="460" y="300" width="110" height="20" as="geometry" />
        </mxCell>
        <mxCell id="pUyvp6-w6EmGbuxLek9e-37" value="投递邮件" style="text;html=1;align=center;verticalAlign=middle;resizable=0;points=[];autosize=1;strokeColor=none;fillColor=none;" vertex="1" parent="1">
          <mxGeometry x="380" y="440" width="60" height="20" as="geometry" />
        </mxCell>
      </root>
    </mxGraphModel>
  </diagram>
</mxfile>
